<svg width="12" height="13" fill="none" xmlns="http://www.w3.org/2000/svg"><g clip-path="url(#clip0_1_58)"><path d="M6 .174c-3.308 0-6 2.691-6 6 0 3.308 2.692 6 6 6s6-2.692 6-6c0-3.309-2.692-6-6-6zm-.352 2.945a8.203 8.203 0 01-1.57-.22 6.24 6.24 0 01.263-.55c.388-.714.864-1.215 1.307-1.397V3.12zm0 .704v2H3.453c.03-.781.164-1.556.384-2.26a8.902 8.902 0 001.811.26zm0 2.702v2a8.902 8.902 0 00-1.811.26 8.835 8.835 0 01-.384-2.26h2.195zm0 2.704v2.166c-.443-.181-.919-.682-1.307-1.397a6.24 6.24 0 01-.262-.549 8.201 8.201 0 011.57-.22zm.704 0a8.203 8.203 0 011.57.22 6.24 6.24 0 01-.263.55c-.388.714-.864 1.215-1.307 1.396V9.23zm0-.704v-2h2.195a8.835 8.835 0 01-.384 2.26 8.902 8.902 0 00-1.811-.26zm0-2.703v-2a8.902 8.902 0 001.811-.26 8.8 8.8 0 01.384 2.26H6.352zm0-2.703V.952c.443.182.919.683 1.307 1.397.094.174.182.358.262.55a8.203 8.203 0 01-1.57.22zm1.925-1.105a5.338 5.338 0 00-.57-.855 5.31 5.31 0 011.876 1.117 6.643 6.643 0 01-.981.425 7.125 7.125 0 00-.325-.687zm-4.554 0a7.125 7.125 0 00-.325.687 6.652 6.652 0 01-.98-.425A5.303 5.303 0 014.291 1.16a5.34 5.34 0 00-.569.855zM3.16 3.361a9.415 9.415 0 00-.411 2.461H.715a5.272 5.272 0 011.202-3.02c.382.22.8.407 1.243.56zm-.41 3.164c.03.857.171 1.694.411 2.461-.443.153-.86.34-1.243.559a5.272 5.272 0 01-1.202-3.02H2.75zm.649 3.122c.098.239.207.468.325.687.177.324.368.61.57.854a5.302 5.302 0 01-1.876-1.117c.306-.163.635-.305.981-.424zm4.879.687a7.12 7.12 0 00.325-.687c.346.119.675.261.98.425a5.303 5.303 0 01-1.874 1.116 5.46 5.46 0 00.569-.854zm.563-1.348a9.43 9.43 0 00.411-2.46h2.034a5.272 5.272 0 01-1.202 3.019 7.231 7.231 0 00-1.243-.559zm.411-3.164a9.414 9.414 0 00-.411-2.46 7.23 7.23 0 001.243-.56 5.273 5.273 0 011.202 3.02H9.25z" fill="#F6762C"/></g><defs><clipPath id="clip0_1_58"><path fill="#fff" transform="translate(0 .174)" d="M0 0h12v12H0z"/></clipPath></defs></svg>