<svg xmlns="http://www.w3.org/2000/svg" width="512" height="512" viewBox="0 0 64 64"><g xmlns="http://www.w3.org/2000/svg" fill-rule="evenodd"><path d="M48 64H16A16 16 0 010 48V16A16 16 0 0116 0h32a16 16 0 0116 16v32a16 16 0 01-16 16" fill="#199bdf" data-original="#199bdf"/><path d="M30 18h18A9 9 0 0048.92.046C48.614.029 48.311 0 48 0H16A16 16 0 000 16v32a30 30 0 0130-30" fill="#32b4ff" data-original="#32b4ff"/><path d="M48 32a16 16 0 1016 16V16a16 16 0 01-16 16" fill="#0082be" data-original="#0082be"/><path d="M45.08 17.032a3 3 0 014.11 3.229L44.754 49.1a3 3 0 01-4.745 1.959L26.927 41.42a2 2 0 01-.186-3.064l12.207-11.529a.5.5 0 00-.617-.782L22.193 36.57a6 6 0 01-4.733.795l-7.572-1.893a2 2 0 01-.279-3.789L45.08 17.032z" fill="#fff" data-original="#ffffff"/></g></svg>