<svg xmlns="http://www.w3.org/2000/svg" width="512" height="512" viewBox="0 0 64 64"><g xmlns="http://www.w3.org/2000/svg" fill-rule="evenodd"><path d="M48 64H16A16 16 0 010 48V16A16 16 0 0116 0h32a16 16 0 0116 16v32a16 16 0 01-16 16" fill="#2d0f1e" data-original="#2d0f1e"/><path d="M30 18h18A9 9 0 0048.92.046C48.614.029 48.311 0 48 0H16A16 16 0 000 16v32a30 30 0 0130-30" fill="#501432" data-original="#501432"/><path d="M48 32a16 16 0 1016 16V16a16 16 0 01-16 16" data-original="#000000"/><path d="M34 14a2 2 0 012-2h4.229a2 2 0 011.961 1.609A7.956 7.956 0 0050 20a2 2 0 012 2v4a2 2 0 01-2 2 15.917 15.917 0 01-8-2.143V42a14 14 0 11-14-14 2 2 0 012 2v4a2 2 0 01-2 2 6 6 0 106 6z" fill="#fe2c55" data-original="#fe2c55"/><path d="M32 12a2 2 0 012-2h4.229a2 2 0 011.961 1.609A7.956 7.956 0 0048 18a2 2 0 012 2v4a2 2 0 01-2 2 15.917 15.917 0 01-8-2.143V40a14 14 0 11-14-14 2 2 0 012 2v4a2 2 0 01-2 2 6 6 0 106 6z" fill="#25f4ee" data-original="#25f4ee"/><path d="M22.876 45.124A6 6 0 0034 42V14a2 2 0 012-2h4.229l.049.001a7.938 7.938 0 003.173 4.577A7.959 7.959 0 0050 20v4a2 2 0 01-2 2 15.917 15.917 0 01-8-2.143V40a14 14 0 01-22.849 10.849A14 14 0 0128 28v4a2 2 0 01-2 2 6 6 0 00-3.124 11.124z" fill="#fff" data-original="#ffffff"/></g></svg>