<svg xmlns="http://www.w3.org/2000/svg" width="512" height="512" viewBox="0 0 64 64"><g xmlns="http://www.w3.org/2000/svg" fill-rule="evenodd"><path d="M48 64H16A16 16 0 010 48V16A16 16 0 0116 0h32a16 16 0 0116 16v32a16 16 0 01-16 16" fill="#4682c3" data-original="#4682c3"/><path d="M30 18h18A9 9 0 0048.92.046C48.614.029 48.311 0 48 0H16A16 16 0 000 16v32a30 30 0 0130-30" fill="#5f9bdc" data-original="#5f9bdc"/><path d="M48 32a16 16 0 1016 16V16a16 16 0 01-16 16" fill="#2d69aa" data-original="#2d69aa"/><path d="M53.118 21.804c.324-1.018 0-1.757-1.435-1.757h-4.765a2.107 2.107 0 00-2.081 1.341 40.578 40.578 0 01-5.877 9.761c-1.11 1.11-1.618 1.481-2.22 1.481-.324 0-.74-.371-.74-1.389v-9.483C36 20.555 35.629 20 34.612 20h-7.306a1.148 1.148 0 00-1.203 1.11c0 1.157 1.712 1.434 1.897 4.673v7.031c0 1.527-.278 1.805-.879 1.805-1.62 0-6.203-5.968-8.563-12.769-.463-1.342-.924-1.85-2.128-1.85h-4.811C10.231 20 10 20.647 10 21.341c0 3.056 8.638 24.612 22.577 24.612 3.052 0 3.423-.693 3.423-1.85v-4.302c0-1.389.278-1.62 1.249-1.62 2.481 0 6.971 5.542 8.131 6.703A2.947 2.947 0 0047.612 46h4.765c1.388 0 1.871-.843 1.502-2.184-.858-2.76-6.827-8.438-7.145-8.873-.695-.926-.51-1.295 0-2.129-.047 0 5.782-8.234 6.384-11.01z" fill="#fff" data-original="#ffffff"/></g></svg>