<svg width="47" height="47" fill="none" xmlns="http://www.w3.org/2000/svg"><circle opacity=".1" cx="25.5" cy="21.674" r="21.5" fill="#F6762C"/><path d="M12.808 14.867H4.269c-1.186 0-2.194.415-3.024 1.245C.415 16.942 0 17.95 0 19.136v8.538c0 1.186.415 2.194 1.245 3.024.83.83 1.838 1.245 3.024 1.245H9.25c.593 0 1.097.208 1.512.623.415.414.623.919.623 1.512v.711c0 1.572-.556 2.913-1.668 4.025-1.112 1.111-2.453 1.667-4.025 1.667H4.27c-.385 0-.719.141-1 .423a1.367 1.367 0 00-.423 1v2.847c0 .385.14.719.422 1a1.37 1.37 0 001.001.423h1.423c1.542 0 3.013-.3 4.414-.9a11.47 11.47 0 003.636-2.436 11.472 11.472 0 002.434-3.635c.6-1.401.9-2.872.9-4.414V19.136c0-1.187-.414-2.194-1.244-3.024-.83-.83-1.838-1.245-3.024-1.245zm22.947 1.244c-.83-.83-1.838-1.245-3.024-1.245h-8.539c-1.186 0-2.194.416-3.024 1.245-.83.83-1.244 1.839-1.244 3.025v8.538c0 1.186.414 2.194 1.244 3.024.83.83 1.838 1.245 3.024 1.245h4.981a2.06 2.06 0 011.512.623c.415.415.623.919.623 1.512v.711c0 1.571-.556 2.913-1.668 4.024-1.112 1.112-2.453 1.668-4.024 1.668h-1.424c-.385 0-.719.141-1 .423a1.367 1.367 0 00-.423 1v2.847c0 .384.141.719.423 1 .281.282.615.423 1 .423h1.424c1.541 0 3.012-.3 4.413-.9a11.485 11.485 0 003.636-2.436 11.467 11.467 0 002.434-3.635c.6-1.4.901-2.872.901-4.414V19.135c0-1.186-.415-2.194-1.245-3.024z" fill="#F6762C"/></svg>